<?xml version="1.0" standalone="no"?>
<!DOCTYPE svg PUBLIC "-//W3C//DTD SVG 1.1//EN" "http://www.w3.org/Graphics/SVG/1.1/DTD/svg11.dtd">
<svg xmlns="http://www.w3.org/2000/svg" xmlns:xlink="http://www.w3.org/1999/xlink" version="1.1" id="layer" x="0px" y="0px" viewBox="-153 -46 652 652" style="enable-background:new -153 -46 652 652;" xml:space="preserve" width="652" height="652">
<path d="M-131.4,236.5h29.7c14.8,0,24,8.3,24,19.2c0.2,6.6-3.4,12.8-9.2,16c8.1,2.5,13.6,10,13.6,18.4c0,13.3-10.3,22.2-27.1,22.2  h-31V236.5z M-101.4,267.6c7,0,11.1-3,11.1-9.6c0-6.6-4-9.5-11.1-9.5h-17.4v19.2H-101.4z M-98.2,300.4c6.9,0,11.7-3.5,11.7-10.4  c0-6.9-4.8-10.5-11.7-10.5h-20.5v20.9H-98.2z M-68,285.3c0-18.2,11.9-28.2,25.8-28.2c6.8,0,12.6,3.2,16.7,7l4.2-5.9h8.1v54.2h-12.4  v-6.7c-3.5,3.7-8.9,7.8-17,7.8C-55.3,313.4-68,303.5-68,285.3L-68,285.3z M-25.5,289.3v-7.9c0-7.8-6.6-13.6-14.6-13.6  c-8.4,0-15.4,5.6-15.4,17.5s6.9,17.5,15.5,17.5C-32.2,302.8-25.6,297.1-25.5,289.3L-25.5,289.3z M102.3,258.2H87.2L65,283.3v-46.8  H52.7v75.8H65v-25.1l22.2,25.1h15.2l-24.1-27.1L102.3,258.2z M133.4,258.2h-15.2l-24,27.1l24,27.1h15.2l-24.1-27.1L133.4,258.2z   M204.4,236.5l-22.5,48.4l0,0l0,0l-22.6-48.4h-13.6v75.8H158v-51.3l18.1,39.1h11.5l18.1-39.1v51.3h12.2v-75.8H204.4z M225.5,285.3  c0-18.2,11.9-28.2,25.8-28.2c6.8,0,12.6,3.2,16.7,7l4.3-5.9h8.1v54.2H268v-6.7c-3.5,3.7-8.9,7.8-17,7.8  C238.3,313.4,225.5,303.5,225.5,285.3L225.5,285.3z M268,289.3v-7.9c0-7.8-6.6-13.6-14.6-13.6c-8.5,0-15.4,5.6-15.4,17.5  s6.9,17.5,15.5,17.5C261.4,302.8,268,297.1,268,289.3L268,289.3z M289.1,258.2h8.1l4.3,5.9c3.7-4.2,7.3-6.8,12.8-6.8h9.1v11.7h-13.8  c-5.1,0-8.1,2.4-8.1,8.2v35.1h-12.4V258.2z M444,298.4v-29.6H434v-10.6H444v-10.5l12.5-7.2v17.7h12.1v10.6h-12.1v27.6  c0,3.6,2.1,5.2,6.2,5.2h5.4v10.7H459C450.1,312.3,444,308.5,444,298.4z M418.8,293.9c-2,5.4-6.5,9.1-14,9.1  c-8.7,0-14.7-5.4-15.3-14.3H431v-3.8c0-17.4-11-27.7-26.4-27.7c-14.4,0-27.1,11.3-27.1,28.2c0,16.9,10.8,28.2,27.1,28.2  c12.6,0,21.3-6.1,25-17.2C426.4,295.5,422.7,294.7,418.8,293.9L418.8,293.9z M404.6,267.2c7.8,0,14,4.4,14.7,12.5h-29.6  C391.2,271.7,397.2,267.2,404.6,267.2z M379.4,258.2h-15.2l-22.2,25v-46.7h-12.4v75.8h12.4v-25l22.2,25h15.2l-24.1-27.1L379.4,258.2  z M21.2,302.5c-9,0-15.7-6.2-15.7-17.2S12.2,268,21.2,268c7.8,0,12.8,3.9,14.5,9.9c2.8-0.6,8.6-1.7,11-2.3  C44,264,34.5,257.1,21.1,257.1c-15.6,0-27.7,11.4-27.7,28.2c0,16.8,12.1,28.2,27.7,28.2c13.2,0,22.4-6.7,25.5-18.6  c-2.5-0.6-8.2-1.7-11-2.3C33.6,298.8,29,302.5,21.2,302.5z"/>
</svg>