<svg id="Calque_1" data-name="Calque 1" xmlns="http://www.w3.org/2000/svg" viewBox="0 0 1072.475 365.451"><defs><style>.cls-1{fill:#ffd103;}</style></defs><path class="cls-1" d="M269.372,0H53.538A53.538,53.538,0,0,0,0,53.538V269.371a53.538,53.538,0,0,0,53.538,53.538H269.372a53.538,53.538,0,0,0,53.537-53.538V53.538A53.538,53.538,0,0,0,269.372,0ZM57.653,76.34a7.934,7.934,0,1,1,7.933-7.934A7.933,7.933,0,0,1,57.653,76.34ZM169.326,259.723l-2.156,1.81a6.319,6.319,0,0,1-8.9-.779L91.915,181.676a6.317,6.317,0,0,1,.779-8.9l2.156-1.809a6.318,6.318,0,0,1,8.9.779l66.354,79.077A6.318,6.318,0,0,1,169.326,259.723Zm3.487-45.806a7.934,7.934,0,1,1,7.933-7.933A7.934,7.934,0,0,1,172.813,213.917Zm97.956,46.55c-3.269,2.742-8.615,1.752-11.941-2.212L187.851,173.74a7.949,7.949,0,0,1,1.826-11.717,46.836,46.836,0,0,0-26.189-85.684c-1.71,0-61.969.063-64.688.139a7.893,7.893,0,0,1-8.114-7.888v-.226a7.889,7.889,0,0,1,7.889-7.891h64.913a62.671,62.671,0,0,1,41.521,109.665l65.655,78.185C273.991,252.287,274.037,257.724,270.769,260.467Z"/><path class="cls-1" d="M462.51.816A68.59,68.59,0,0,1,480.834,3.2a44.32,44.32,0,0,1,15.156,7.328,35.668,35.668,0,0,1,10.4,12.677q3.863,7.726,3.862,18.626,0,16.047-8.022,25.556a43.386,43.386,0,0,1-20.5,13.47l29.915,52.1a4.939,4.939,0,0,1,.595,2.181,4.4,4.4,0,0,1-4.36,4.358h-8.518q-3.965,0-5.845-1.983a18.586,18.586,0,0,1-2.675-3.367L462.113,83.624H428.038v50.518a5.418,5.418,0,0,1-5.349,5.35h-8.124a5.415,5.415,0,0,1-5.349-5.35V6.165A5.144,5.144,0,0,1,410.8,2.4,5.133,5.133,0,0,1,414.565.816ZM428.038,65.8h33.48q14.264,0,22.089-5.644t7.826-18.326q0-12.675-7.826-17.93t-22.089-5.252h-33.48Z"/><path class="cls-1" d="M529.866,78.076a52.267,52.267,0,0,1,4.358-17.035,48.276,48.276,0,0,1,9.311-13.866,40.867,40.867,0,0,1,13.77-9.311,45.918,45.918,0,0,1,17.93-3.371,49.912,49.912,0,0,1,19.114,3.468,39.412,39.412,0,0,1,14.366,10,44.656,44.656,0,0,1,9.112,15.85A64.288,64.288,0,0,1,621,84.615v5.35a5.42,5.42,0,0,1-5.35,5.349H547.5V96.5q.4,13.471,8.222,20.7t19.517,7.23q10.89,0,16.343-3.071a34.3,34.3,0,0,0,8.817-6.834,11.523,11.523,0,0,1,2.772-2.181,8.353,8.353,0,0,1,3.564-.591h5.945a5.827,5.827,0,0,1,3.961,1.582,3.855,3.855,0,0,1,1.388,3.768,21.054,21.054,0,0,1-3.366,7.821,29.605,29.605,0,0,1-8.024,7.927A48.341,48.341,0,0,1,593.561,139a60.963,60.963,0,0,1-18.326,2.477,44.114,44.114,0,0,1-17.833-3.468,42.792,42.792,0,0,1-13.766-9.509,47.486,47.486,0,0,1-9.412-14.263,56.263,56.263,0,0,1-4.358-17.93A83.782,83.782,0,0,1,529.866,78.076Zm17.63.6h55.671v-.6q0-12.079-7.628-19.313t-20.3-7.23a29.873,29.873,0,0,0-10.7,1.881,26.746,26.746,0,0,0-8.716,5.349,24.915,24.915,0,0,0-5.944,8.421,29.11,29.11,0,0,0-2.38,10.892Zm27.761-74.9A11.03,11.03,0,0,1,578.918.6,9.894,9.894,0,0,1,582.585,0h14.66q3.765,0,3.763,3.966a3.24,3.24,0,0,1-.987,2.375L584.149,18.247a19.365,19.365,0,0,1-3.367,2.38,10.274,10.274,0,0,1-4.952.991H568.5c-2.114,0-3.168-1.054-3.168-3.173a3.477,3.477,0,0,1,.992-2.573Z"/><path class="cls-1" d="M663,47.963a53.7,53.7,0,0,1,4.165-4.851,27.184,27.184,0,0,1,5.446-4.358,29.2,29.2,0,0,1,7.231-3.071,35.445,35.445,0,0,1,9.707-1.19q12.08,0,20.01,4.46a31.84,31.84,0,0,1,12.478,12.778,77.832,77.832,0,0,1,5.451-6.737,30.915,30.915,0,0,1,6.733-5.548,32.521,32.521,0,0,1,8.721-3.666,44.833,44.833,0,0,1,11.39-1.287q20.01,0,29.122,11.985t9.113,32.788v54.876a5.411,5.411,0,0,1-5.35,5.35h-7.327a5.42,5.42,0,0,1-5.35-5.35V81.249q0-15.258-5.944-22.486t-17.432-7.23q-10.5,0-16.943,6.931t-6.438,21.4v54.281a5.409,5.409,0,0,1-5.349,5.35H715.1a5.418,5.418,0,0,1-5.349-5.35V81.249q0-15.258-5.944-22.486t-17.432-7.23q-10.506,0-16.938,6.931T663,79.861v54.281a5.409,5.409,0,0,1-5.349,5.35H650.32a5.418,5.418,0,0,1-5.349-5.35V41.826a5.409,5.409,0,0,1,5.349-5.35h7.328A5.4,5.4,0,0,1,663,41.826Z"/><path class="cls-1" d="M841.3,15.476a5.123,5.123,0,0,1-1.587,3.762,5.136,5.136,0,0,1-3.763,1.587H824.655a5.129,5.129,0,0,1-3.763-1.587,5.122,5.122,0,0,1-1.586-3.762V5.424a5.138,5.138,0,0,1,1.586-3.763A5.151,5.151,0,0,1,824.655.075h11.294a5.158,5.158,0,0,1,3.763,1.586A5.139,5.139,0,0,1,841.3,5.424Zm-1.983,118.666a5.411,5.411,0,0,1-5.35,5.35h-7.327a5.42,5.42,0,0,1-5.35-5.35V41.826a5.411,5.411,0,0,1,5.35-5.35h7.327a5.4,5.4,0,0,1,5.35,5.35Z"/><path class="cls-1" d="M511.242,183.192a5.42,5.42,0,0,1,5.35,5.349V316.519a5.418,5.418,0,0,1-5.35,5.349h-8.121a5.407,5.407,0,0,1-5.349-5.349V260.651H428.036v55.868a5.418,5.418,0,0,1-5.35,5.349h-8.125a5.306,5.306,0,0,1-3.763-1.485,5.04,5.04,0,0,1-1.582-3.864V188.541a5.411,5.411,0,0,1,5.345-5.349h8.125a5.42,5.42,0,0,1,5.35,5.349v54.282h69.736V188.541a5.409,5.409,0,0,1,5.349-5.349Z"/><path class="cls-1" d="M547.494,224.2a5.407,5.407,0,0,1,5.349-5.349h7.332a5.409,5.409,0,0,1,5.35,5.349v52.3q0,15.257,6.834,22.785t19.908,7.526q12.478,0,19.613-7.526t7.134-22.785V224.2a5.4,5.4,0,0,1,5.35-5.349h7.327a5.409,5.409,0,0,1,5.35,5.349v92.317a5.418,5.418,0,0,1-5.35,5.349h-7.327a5.409,5.409,0,0,1-5.35-5.349v-6.143a38.575,38.575,0,0,1-10.7,9.214q-6.935,4.258-19.018,4.261a45.763,45.763,0,0,1-17.039-3.071,36.947,36.947,0,0,1-21.79-22.587,54.8,54.8,0,0,1-2.974-18.718Z"/><path class="cls-1" d="M661.8,263.824a60.259,60.259,0,0,1,4.16-19.613,45.14,45.14,0,0,1,9.509-14.761,41.226,41.226,0,0,1,13.968-9.311,45.465,45.465,0,0,1,17.335-3.269q12.283,0,19.611,4.261a37.163,37.163,0,0,1,11.095,9.209V224.2a5.4,5.4,0,0,1,5.35-5.349h7.327a5.409,5.409,0,0,1,5.35,5.349V320.48q0,20.6-11.691,32.788t-35.059,12.183a63.682,63.682,0,0,1-20.309-2.853,45.611,45.611,0,0,1-13.867-7.193,29.866,29.866,0,0,1-8.121-9.455,23.387,23.387,0,0,1-2.873-9.848,4.354,4.354,0,0,1,1.485-3.743,5.469,5.469,0,0,1,3.864-1.577h5.94a6.057,6.057,0,0,1,3.666,1.079,10.3,10.3,0,0,1,2.873,4.212c.4.784,1.021,1.863,1.882,3.236a15.368,15.368,0,0,0,4.159,4.111,26.949,26.949,0,0,0,7.531,3.526,39.906,39.906,0,0,0,11.787,1.471,54.575,54.575,0,0,0,12.184-1.292,27.045,27.045,0,0,0,9.8-4.256,19.6,19.6,0,0,0,6.443-7.927,28.88,28.88,0,0,0,2.278-12.082V310.376a34.592,34.592,0,0,1-11.294,9.412q-7.33,4.056-19.412,4.063a45.561,45.561,0,0,1-17.335-3.269,41.153,41.153,0,0,1-13.968-9.311,45.14,45.14,0,0,1-9.509-14.761A60.231,60.231,0,0,1,661.8,276.9q-.2-2.974-.2-6.539T661.8,263.824Zm75.678-.6q-.594-14.067-8.421-21.692t-20.3-7.628q-13.08,0-20.6,8.319t-8.324,22.587q-.2,5.542,0,11.091.791,14.262,8.324,22.587t20.6,8.319q12.478,0,20.3-7.724t8.421-21.6q.2-2.974.2-7.134T737.478,263.229Z"/><path class="cls-1" d="M784.23,224.2a5.407,5.407,0,0,1,5.349-5.349h7.333a5.407,5.407,0,0,1,5.349,5.349v52.3q0,15.257,6.835,22.785T829,306.812q12.478,0,19.613-7.526t7.134-22.785V224.2a5.4,5.4,0,0,1,5.349-5.349h7.328a5.407,5.407,0,0,1,5.349,5.349v92.317a5.416,5.416,0,0,1-5.349,5.349H861.1a5.407,5.407,0,0,1-5.349-5.349v-6.143a38.59,38.59,0,0,1-10.7,9.214q-6.936,4.258-19.018,4.261a45.769,45.769,0,0,1-17.04-3.071,36.942,36.942,0,0,1-21.789-22.587,54.8,54.8,0,0,1-2.975-18.718Z"/><path class="cls-1" d="M898.735,260.453a52.267,52.267,0,0,1,4.358-17.035,48.281,48.281,0,0,1,9.311-13.867,40.85,40.85,0,0,1,13.77-9.31,45.918,45.918,0,0,1,17.93-3.371,49.893,49.893,0,0,1,19.114,3.468,39.388,39.388,0,0,1,14.365,10,44.638,44.638,0,0,1,9.113,15.849,64.321,64.321,0,0,1,3.173,20.8v5.349a5.418,5.418,0,0,1-5.35,5.349H916.365v1.19q.4,13.473,8.222,20.7t19.517,7.231q10.889,0,16.343-3.072a34.253,34.253,0,0,0,8.817-6.834,11.554,11.554,0,0,1,2.772-2.181,8.355,8.355,0,0,1,3.564-.59h5.945a5.822,5.822,0,0,1,3.961,1.582,3.853,3.853,0,0,1,1.388,3.767,21.047,21.047,0,0,1-3.366,7.821,29.591,29.591,0,0,1-8.024,7.927,48.311,48.311,0,0,1-13.074,6.143,61,61,0,0,1-18.326,2.476,44.123,44.123,0,0,1-17.834-3.468,42.812,42.812,0,0,1-13.765-9.508,47.491,47.491,0,0,1-9.412-14.264,56.263,56.263,0,0,1-4.358-17.929A83.782,83.782,0,0,1,898.735,260.453Zm17.63.6h55.671v-.6q0-12.079-7.628-19.313t-20.3-7.231a29.873,29.873,0,0,0-10.7,1.882,26.712,26.712,0,0,0-8.716,5.349,24.911,24.911,0,0,0-5.944,8.42,29.091,29.091,0,0,0-2.38,10.893Z"/><path class="cls-1" d="M1039.987,287.2a33.668,33.668,0,0,0,.692,7.033,14.071,14.071,0,0,0,2.476,5.644,11.288,11.288,0,0,0,5.05,3.666,23.222,23.222,0,0,0,8.42,1.287h10.5a5.416,5.416,0,0,1,5.349,5.349v6.341a5.416,5.416,0,0,1-5.349,5.349h-12.479q-17.238,0-24.962-8.914t-7.729-25.755V235.887H1007.3a5.409,5.409,0,0,1-5.35-5.349V224.2a5.409,5.409,0,0,1,5.35-5.349h14.66V187.928a5.418,5.418,0,0,1,5.349-5.35h7.333a5.418,5.418,0,0,1,5.349,5.35v30.925h25.156a5.4,5.4,0,0,1,5.349,5.349v6.336a5.4,5.4,0,0,1-5.349,5.349h-25.156Z"/></svg>