<?xml version="1.0" standalone="no"?>
<!DOCTYPE svg PUBLIC "-//W3C//DTD SVG 1.1//EN" "http://www.w3.org/Graphics/SVG/1.1/DTD/svg11.dtd">
<svg xmlns="http://www.w3.org/2000/svg" xmlns:xlink="http://www.w3.org/1999/xlink" version="1.1" id="layer" x="0px" y="0px" viewBox="-153 -46 652 652" style="enable-background:new -153 -46 652 652;" xml:space="preserve" width="652" height="652">
<style type="text/css">
	.st0{fill:#FF8300;}
</style>
<path class="st0" d="M443,287.7v12.1c0,2.9-0.7,5.1-2.1,6.6c-1.4,1.5-3.3,2.3-5.3,2.2c-2,0.1-3.8-0.8-5.1-2.2c-1.3-1.5-2-3.7-2-6.6  v-40.3c0-6.5,2.4-9.8,7.1-9.8c2.4,0,4.1,0.8,5.2,2.3c1.1,1.5,1.6,3.8,1.7,6.7c1.4-2.5,3.2-4.8,5.3-6.7c1.8-1.5,4.2-2.3,7.3-2.3  c3.1,0,6.1,0.8,8.9,2.3c2.9,1.5,4.3,3.5,4.3,6.1c0.1,1.7-0.6,3.3-1.8,4.4c-1,1.1-2.5,1.7-4,1.7c-1.3-0.2-2.6-0.5-3.8-1  c-1.7-0.6-3.6-0.9-5.4-1c-1.9-0.1-3.7,0.5-5.2,1.7c-1.5,1.3-2.6,3.1-3.1,5c-0.8,2.5-1.3,5.1-1.5,7.8  C443.1,279.7,443,283.4,443,287.7z M407,282.8h-28.3c0,3,0.7,6,2,8.7c2.2,4.7,7,7.7,12.2,7.6c1.6,0,3.2-0.2,4.8-0.6  c1.5-0.4,2.9-1.1,4.2-1.9c1.3-0.8,2.5-1.8,3.7-2.8c1.1-1,2.6-2.3,4.4-4c0.9-0.7,2-1,3.2-1c1.3-0.1,2.6,0.4,3.6,1.2  c1,0.9,1.5,2.2,1.4,3.5c-0.1,1.6-0.6,3.2-1.5,4.6c-1.2,2-2.8,3.7-4.6,5c-2.4,1.8-5,3.1-7.8,4c-3.5,1.1-7.1,1.7-10.8,1.6  c-9.3,0-16.5-2.7-21.7-8c-5.2-5.3-7.7-12.5-7.7-21.6c-0.1-4.1,0.6-8.1,1.9-11.9c1.2-3.5,3.1-6.7,5.6-9.4c2.5-2.7,5.6-4.7,9-6  c3.8-1.4,7.8-2.1,11.9-2.1c5.7,0,10.5,1.2,14.6,3.6c3.8,2.2,7,5.4,9.1,9.3c2,3.5,3,7.5,3,11.6c0,3.6-1,6-3.1,7.1  C413.6,282.2,410.7,282.8,407,282.8z M378.6,274.5h26.3c-0.4-5-1.7-8.7-4-11.1c-2.3-2.5-5.4-3.7-9.2-3.7c-3.4-0.1-6.6,1.3-8.9,3.8  C380.5,266,379.1,269.7,378.6,274.5L378.6,274.5z M340.3,300.4v-1.4c-1.7,2-3.6,3.8-5.8,5.4c-1.9,1.4-3.9,2.5-6.2,3.2  c-2.3,0.7-4.8,1.1-7.2,1.1c-3.3,0-6.6-0.7-9.6-2.2c-3-1.5-5.6-3.6-7.7-6.3c-2.2-2.9-3.9-6.1-4.9-9.6c-1.1-3.9-1.7-7.9-1.7-11.9  c0-9.1,2.2-16.1,6.6-21.2c4.4-5.1,10.2-7.6,17.5-7.6c4.2,0,7.7,0.7,10.6,2.1c3.2,1.7,6,3.9,8.4,6.6v-21.4c0-3,0.6-5.2,1.8-6.7  c1.2-1.5,3.1-2.4,5.1-2.3c2.2,0,3.9,0.7,5.1,2.1c1.2,1.4,1.8,3.5,1.8,6.2v63.9c0,2.8-0.6,4.8-1.9,6.2c-1.3,1.4-3.1,2.1-4.9,2.1  c-1.9,0-3.7-0.7-4.9-2.1C340.9,305.1,340.3,303,340.3,300.4L340.3,300.4z M311.8,279.1c-0.1,3.4,0.5,6.9,1.8,10.1  c1,2.5,2.8,4.7,5,6.2c2.1,1.4,4.5,2.1,7,2.1c2.5,0,4.9-0.7,7-2c2.2-1.5,4-3.6,5-6.1c1.3-2.7,1.9-6.2,1.9-10.3  c0.1-3.4-0.6-6.8-1.9-9.9c-1.1-2.6-2.8-4.8-5.1-6.4c-2.1-1.4-4.5-2.2-7-2.2c-2.5,0-5,0.8-7.1,2.3c-2.2,1.7-3.9,3.9-4.9,6.5  C312.3,272.4,311.7,275.8,311.8,279.1z M267.7,261.5l6.3-6.3l-7.2-7.2l1,0.2l0.4,0.1c2.8,0.7,5.5,1.8,8,3.3c3.4,2.1,6.2,5,8.4,8.4  c1.5,2.4,4,7.1,4,12.4v30.4c-0.2,3.4-3,6.1-6.5,6.1c-3.8,0-6.8-2.7-6.8-6.1v-30.4c0-3.5-3.4-8.1-7.5-10.1l-0.4-0.2l-0.2-0.1  L267.7,261.5L267.7,261.5z M239.8,260c2.1-3.3,4.9-6.1,8.2-8.2c2.6-1.6,5.4-2.8,8.4-3.6v-5.3l12.2,12.2l-12.2,12.2v-5.3  c-3.6,1.9-6.7,5.7-7.4,9.7c0,0.2-0.1,0.5-0.1,0.7c-0.1,0.6-0.1,1.2-0.1,1.7v28.6c0,3.3-3.1,6.2-6.7,6.2c-4.2,0-6.3-3.2-6.4-6.2  v-30.4C235.6,268.5,237,264.4,239.8,260L239.8,260z M220.7,260.3c-2.1-3.3-4.9-6.2-8.2-8.3c-2.6-1.6-5.4-2.8-8.4-3.6v-5.2  l-12.2,12.2l12.2,12.2v-5.3c3.6,1.9,6.7,5.7,7.4,9.7c0,0.2,0.1,0.5,0.1,0.7c0.1,0.6,0.1,1.2,0.1,1.7v28.6c0,3.3,3.1,6.2,6.7,6.2  c4.2,0,6.3-3.2,6.4-6.2v-30.4C224.8,268.8,223.5,264.7,220.7,260.3L220.7,260.3z M192.7,261.8l-6.3-6.3l7.2-7.2l-1,0.2l-0.4,0.1  c-2.8,0.7-5.5,1.8-7.9,3.3c-3.4,2.1-6.2,5-8.4,8.4c-1.5,2.4-4,7.1-4,12.4v30.4c0.2,3.4,3,6.1,6.5,6.1c3.8,0,6.8-2.7,6.8-6.1v-30.4  c0-3.5,3.4-8.1,7.5-10.1l0.4-0.2l0.2-0.1C193.2,262.3,192.7,261.8,192.7,261.8z M150.4,282.8H122c0,3,0.7,6,2,8.7  c2.2,4.7,7,7.7,12.2,7.6c1.6,0,3.2-0.2,4.8-0.6c1.5-0.4,2.9-1.1,4.2-1.9c1.3-0.8,2.5-1.8,3.7-2.8c1.1-1,2.6-2.3,4.4-4  c0.9-0.7,2-1,3.2-1c1.3-0.1,2.6,0.4,3.6,1.2c1,0.9,1.5,2.2,1.4,3.5c-0.1,1.6-0.6,3.2-1.5,4.6c-1.2,2-2.8,3.7-4.6,5  c-2.4,1.8-5,3.1-7.8,4c-3.5,1.1-7.1,1.7-10.8,1.6c-9.3,0-16.5-2.7-21.7-8c-5.2-5.3-7.7-12.5-7.7-21.6c-0.1-4.1,0.6-8.1,1.9-11.9  c1.2-3.5,3.1-6.7,5.6-9.4c2.5-2.7,5.6-4.7,9-6c3.8-1.4,7.8-2.1,11.9-2.1c5.7,0,10.5,1.2,14.6,3.6c3.8,2.2,7,5.4,9.1,9.3  c2,3.5,3,7.5,3,11.6c0,3.6-1,6-3.1,7.1C157.1,282.2,154.2,282.8,150.4,282.8z M122,274.5h26.3c-0.4-5-1.7-8.7-4-11.1  c-2.3-2.5-5.4-3.7-9.2-3.7c-3.4-0.1-6.6,1.3-8.9,3.8C123.9,266,122.5,269.7,122,274.5z M101,289.7c0.1,3.6-0.9,7.2-2.9,10.3  c-1.9,2.8-4.8,5-8.6,6.5c-3.8,1.5-8.4,2.2-13.9,2.2c-5.2,0-9.7-0.8-13.4-2.4c-3.7-1.6-6.5-3.6-8.2-6c-1.8-2.4-2.7-4.8-2.7-7.2  c0-1.5,0.6-3,1.7-4.1c1.1-1.1,2.7-1.7,4.3-1.7c1.3-0.1,2.5,0.3,3.5,1.1c0.9,0.9,1.7,2,2.3,3.1c1.3,2.3,3.1,4.3,5.3,5.8  c2.1,1.3,4.9,1.9,8.5,1.9c2.9,0,5.3-0.6,7.1-1.9c1.9-1.3,2.8-2.8,2.8-4.4c0-2.5-1-4.4-2.9-5.6c-1.9-1.2-5.1-2.3-9.5-3.4  c-4.2-1-8.2-2.3-12.2-3.9c-2.9-1.2-5.5-3-7.5-5.4c-1.9-2.3-2.9-5.2-2.8-8.2c0-2.9,0.9-5.8,2.6-8.2c1.9-2.7,4.6-4.9,7.7-6.2  c3.4-1.5,7.5-2.3,12.2-2.3c3.4,0,6.8,0.4,10.1,1.2c2.6,0.6,5.2,1.7,7.5,3.1c1.8,1.1,3.4,2.6,4.6,4.3c1,1.4,1.5,3,1.5,4.7  c0.1,1.5-0.6,3-1.7,4.1c-1.1,1.1-2.7,1.6-4.7,1.6c-1.4,0-2.7-0.4-3.8-1.3c-1.3-1.1-2.5-2.4-3.6-3.8c-1.1-1.4-2.4-2.5-3.9-3.4  c-1.5-0.8-3.5-1.3-6.1-1.3c-2.3-0.1-4.6,0.5-6.5,1.7c-1.7,1.1-2.6,2.5-2.6,4.2c0,1.5,0.7,2.9,1.9,3.8c1.6,1.1,3.3,1.9,5.1,2.4  c2.2,0.6,5.1,1.4,8.9,2.3c3.8,0.9,7.5,2.2,11,3.9c2.5,1.3,4.8,3.1,6.5,5.4C100.2,284.7,101,287.2,101,289.7L101,289.7z M-57.5,200.8  c-41,0-74.2,33.2-74.2,74.2s33.2,74.2,74.2,74.2S16.6,316,16.6,275S-16.6,200.8-57.5,200.8z M-73.7,265.1c0.2,0.2,0.3,0.4,0.5,0.6  c0.4,0.5,0.8,1,1.3,1.5l21.9,21.9c2.3,2.3,2,6.5-0.4,8.9c-2.3,2.4-6.1,2.6-8.5,0.3c-0.1-0.1-0.1-0.1-0.2-0.2l-23.3-23.3  c-3.4-3.4-5.1-7.9-6.1-12.4c-1.7-7.2-0.4-14.8,3.5-21.1v0l-4.6-4.6h18.8v18.7l-4.6-4.6v0.1C-77.1,255.7-76.5,261-73.7,265.1z   M-39.2,317.6c-2.6,1.6-5.5,2.8-8.4,3.5c-4.1,0.9-8.4,0.9-12.5,0c-4.3-1-9-3-12.2-6.3l-23.3-23.3c-2.2-2.5-2.1-6.3,0.3-8.7  c2.6-2.6,6.6-2.8,8.9-0.5l23.3,23.3c3,3,9.5,3.7,14.2,2.2l0.5-0.2v9.7h9.8L-39.2,317.6z M-44.3,313.2v-18.8l4.6,4.6v-0.1  c1.8-4.6,1.2-9.9-1.7-14c-0.2-0.2-0.3-0.4-0.5-0.6c-0.4-0.5-0.8-1-1.3-1.5l-21.9-21.9c-2.3-2.3-2-6.5,0.4-8.9  c2.3-2.4,6.1-2.6,8.5-0.3c0.1,0.1,0.1,0.1,0.2,0.2l23.3,23.3c3.4,3.4,5.1,7.9,6.1,12.4c1.7,7.2,0.4,14.8-3.5,21.1v0l4.6,4.6H-44.3z   M-19.7,267.1c-2.6,2.6-6.6,2.8-8.9,0.5l-23.3-23.3c-3-3-9.5-3.7-14.2-2.2l-0.5,0.2v-9.7h-9.8l0.5-0.3c6.3-3.9,13.8-5.1,21-3.5  c4.3,1,9,3,12.2,6.3l23.3,23.3C-17.1,260.9-17.3,264.8-19.7,267.1L-19.7,267.1z"/>
</svg>